<?xml version="1.0" encoding="UTF-8" standalone="no"?>
<!-- Created with Inkscape (http://www.inkscape.org/) -->

<svg
   width="96.401527mm"
   height="136.22432mm"
   viewBox="0 0 96.401527 136.22432"
   version="1.1"
   id="svg1"
   xml:space="preserve"
   inkscape:version="1.3.2 (091e20e, 2023-11-25, custom)"
   sodipodi:docname="Cabelos lisos.svg"
   xmlns:inkscape="http://www.inkscape.org/namespaces/inkscape"
   xmlns:sodipodi="http://sodipodi.sourceforge.net/DTD/sodipodi-0.dtd"
   xmlns="http://www.w3.org/2000/svg"
   xmlns:svg="http://www.w3.org/2000/svg"><sodipodi:namedview
     id="namedview1"
     pagecolor="#505050"
     bordercolor="#eeeeee"
     borderopacity="1"
     inkscape:showpageshadow="0"
     inkscape:pageopacity="0"
     inkscape:pagecheckerboard="0"
     inkscape:deskcolor="#505050"
     inkscape:document-units="mm"
     inkscape:zoom="0.72426347"
     inkscape:cx="237.48264"
     inkscape:cy="287.87866"
     inkscape:window-width="1920"
     inkscape:window-height="1009"
     inkscape:window-x="-8"
     inkscape:window-y="-8"
     inkscape:window-maximized="1"
     inkscape:current-layer="layer1" /><defs
     id="defs1" /><g
     inkscape:label="Cabelo"
     inkscape:groupmode="layer"
     id="layer1"
     transform="translate(-56.771917,-81.377385)"><path
       style="display:inline;fill:#ffffff;fill-opacity:1;stroke:#000000;stroke-width:4.62927;stroke-linecap:round;stroke-linejoin:round;stroke-miterlimit:10;stroke-dasharray:282.385, 18.5171;stroke-dashoffset:0;paint-order:markers fill stroke"
       d="m 89.368073,209.02944 c 0,0 -14.274912,4.95636 -22.722607,4.75543 C 59.379718,175.11326 44.847851,83.694306 105.83,83.694306 c 60.98215,0 41.8209,93.110314 36.69762,130.445254 -3.82241,-0.2185 -20.85742,-6.14055 -20.85742,-6.14055"
       id="path7"
       sodipodi:nodetypes="cczcc"
       inkscape:label="Longo" /><path
       style="display:inline;fill:#ffffff;fill-opacity:1;stroke:#000000;stroke-width:4.62927;stroke-linecap:round;stroke-linejoin:round;stroke-miterlimit:10;stroke-dasharray:282.385, 18.5171;stroke-dashoffset:0;paint-order:markers fill stroke"
       d="m 93.818317,172.32555 c 0,0 -19.048051,3.77905 -27.172851,4.41765 C 59.379718,138.07159 53.250064,83.328992 105.83,83.694306 c 52.57994,0.365314 41.8209,56.068644 36.69762,93.403584 -4.98483,-1.63924 -26.96725,-5.01485 -26.96725,-5.01485"
       id="path6"
       sodipodi:nodetypes="cczcc"
       inkscape:label="Medio" /><path
       style="display:inline;fill:#ffffff;fill-opacity:1;stroke:#000000;stroke-width:4;stroke-linecap:round;stroke-linejoin:round;stroke-miterlimit:10;stroke-dasharray:244, 16;stroke-dashoffset:0;paint-order:markers fill stroke"
       d="m 87.084863,158.66653 c 0,0 -11.991702,4.1096 -20.439397,3.95958 C 53.900013,146.57257 50.327556,83.694306 105.83,83.694306 c 55.50244,0 49.49249,67.141274 36.69762,79.196624 -3.82241,-0.16314 -13.94748,-4.95423 -13.94748,-4.95423"
       id="path5"
       sodipodi:nodetypes="cczcc"
       inkscape:label="Curto" /><path
       id="path8"
       style="color:#000000;display:inline;fill:#ffffff;fill-opacity:1;stroke-linecap:round;stroke-linejoin:round;stroke-miterlimit:10;stroke-dasharray:88, 8;-inkscape-stroke:none;paint-order:markers fill stroke"
       d="m 133.28644,121.93623 -57.470913,0.11782 c -2.426914,28.61631 5.235671,40.95765 20.162077,44.34199 -0.359772,-0.0683 -0.718531,-0.12875 -1.079004,-0.20205 -0.804294,5.6762 -1.92873,9.55286 -7.071403,12.81886 -29.908423,0.92924 -26.374982,19.69464 -26.348262,36.42258 l 86.958515,0.16691 c 0.0341,-17.15734 3.27976,-35.95736 -27.48101,-37.36464 -4.44861,-3.73095 -7.74035,-7.2061 -6.87917,-11.9016 15.13506,-4.30742 21.22157,-21.2583 19.20917,-44.39987 z m -29.30106,45.44218 c 0.47629,0.0169 0.9588,0.0268 1.44539,0.032 -0.48072,-0.003 -0.96223,-0.0116 -1.44539,-0.032 z m 3.3259,0.004 c -0.36452,0.0167 -0.73101,0.0183 -1.09709,0.0238 0.36916,-0.003 0.73565,-0.009 1.09709,-0.0238 z"
       inkscape:label="Bkg_b" /><path
       id="path9"
       style="color:#000000;display:inline;fill:#000000;fill-opacity:1;stroke-linecap:round;stroke-linejoin:round;stroke-miterlimit:10;stroke-dasharray:88, 8;-inkscape-stroke:none;paint-order:markers fill stroke"
       d="m 75.983993,120.05779 5.16e-4,0.003 a 2,2 0 0 0 -2.162142,1.82625 c -0.354443,4.19865 -0.536841,8.43535 -0.410311,12.68966 a 2.0002,2.0002 0 0 0 0,0.002 c 0.083,2.72918 0.296113,5.47291 0.706934,8.20673 0.11454,0.76089 0.24452,1.52272 0.392741,2.28152 0.106764,0.54654 0.223559,1.09201 0.349849,1.63659 0.12207,0.52637 0.252229,1.05041 0.394292,1.57406 0.137422,0.50654 0.285548,1.01272 0.443383,1.51567 a 2.0002,2.0002 0 0 0 0.0036,0.014 l 0.148828,0.46457 a 2.0002,2.0002 0 0 0 0.0098,0.0253 l 0.153996,0.4594 a 2.0002,2.0002 0 0 0 0.0078,0.0269 l 0.160197,0.45114 a 2.0002,2.0002 0 0 0 0.0098,0.0258 l 0.164331,0.44493 a 2.0002,2.0002 0 0 0 0.0098,0.0274 l 0.167948,0.4377 a 2.0002,2.0002 0 0 0 0.0098,0.0274 l 0.173632,0.4315 a 2.0002,2.0002 0 0 0 0.01189,0.0274 l 0.177767,0.42374 a 2.0002,2.0002 0 0 0 0.01137,0.0295 l 0.181901,0.41599 a 2.0002,2.0002 0 0 0 0.01189,0.0295 l 0.187069,0.40979 a 2.0002,2.0002 0 0 0 0.01395,0.0274 l 0.191202,0.40411 a 2.0002,2.0002 0 0 0 0.01395,0.0295 l 0.195337,0.39635 a 2.0002,2.0002 0 0 0 0.01344,0.0295 l 0.201021,0.39067 a 2.0002,2.0002 0 0 0 0.01602,0.0295 l 0.204639,0.38447 a 2.0002,2.0002 0 0 0 0.01602,0.0274 l 0.208773,0.37879 a 2.0002,2.0002 0 0 0 0.0155,0.0294 l 0.214974,0.37104 a 2.0002,2.0002 0 0 0 0.01757,0.0295 l 0.218591,0.36328 a 2.0002,2.0002 0 0 0 0.01757,0.0295 l 0.222726,0.35915 a 2.0002,2.0002 0 0 0 0.01757,0.0274 l 0.228409,0.35346 a 2.0002,2.0002 0 0 0 0.01964,0.0274 l 0.232544,0.34572 a 2.0002,2.0002 0 0 0 0.01964,0.0289 l 0.236162,0.34003 a 2.0002,2.0002 0 0 0 0.01964,0.0295 l 0.241846,0.33177 a 2.0002,2.0002 0 0 0 0.01964,0.0294 l 0.245979,0.32608 a 2.0002,2.0002 0 0 0 0.0217,0.0274 l 0.250114,0.32039 a 2.0002,2.0002 0 0 0 0.02119,0.0295 l 0.255798,0.31419 a 2.0002,2.0002 0 0 0 0.0217,0.0274 l 0.259933,0.30851 a 2.0002,2.0002 0 0 0 0.02325,0.0274 l 0.262,0.30282 a 2.0002,2.0002 0 0 0 0.02532,0.0274 l 0.267167,0.29455 a 2.0002,2.0002 0 0 0 0.02377,0.0274 l 0.271302,0.28939 a 2.0002,2.0002 0 0 0 0.02532,0.0274 l 0.277502,0.28319 a 2.0002,2.0002 0 0 0 0.02532,0.0274 l 0.279569,0.27699 a 2.0002,2.0002 0 0 0 0.02739,0.0253 l 0.283187,0.27182 a 2.0002,2.0002 0 0 0 0.02687,0.0253 l 0.289388,0.26562 a 2.0002,2.0002 0 0 0 0.02739,0.0253 l 0.293005,0.25993 a 2.0002,2.0002 0 0 0 0.02739,0.0253 l 0.296623,0.25373 a 2.0002,2.0002 0 0 0 0.02945,0.0238 l 0.300757,0.24804 a 2.0002,2.0002 0 0 0 0.02946,0.0233 l 0.304374,0.24184 a 2.0002,2.0002 0 0 0 0.02945,0.0238 l 0.310576,0.23616 a 2.0002,2.0002 0 0 0 0.02894,0.0217 l 0.312642,0.23203 a 2.0002,2.0002 0 0 0 0.02946,0.0217 l 0.318326,0.22479 a 2.0002,2.0002 0 0 0 0.02946,0.0212 l 0.324011,0.21911 a 2.0002,2.0002 0 0 0 0.02946,0.0212 l 0.326078,0.2129 a 2.0002,2.0002 0 0 0 0.02946,0.0196 l 0.331762,0.20877 a 2.0002,2.0002 0 0 0 0.02946,0.0196 l 0.33383,0.20309 a 2.0002,2.0002 0 0 0 0.03152,0.0176 l 0.337447,0.1974 a 2.0002,2.0002 0 0 0 0.03152,0.0176 l 0.341581,0.19327 a 2.0002,2.0002 0 0 0 0.02946,0.0155 l 0.347782,0.18759 a 2.0002,2.0002 0 0 0 0.0155,0.008 c 0.380838,0.20121 0.765506,0.39266 1.154452,0.57412 0.39315,0.18342 0.789221,0.35758 1.189074,0.52142 0.541388,0.22185 1.090087,0.42564 1.640727,0.6134 0.155181,0.0529 0.312441,0.0959 0.468188,0.14624 -0.24587,1.42945 -0.548235,2.79295 -1.016992,4.02921 a 2.0002,2.0002 0 0 0 -0.0021,0.004 c -0.420884,1.11693 -1.004914,2.15627 -1.737878,3.03909 a 2.0002,2.0002 0 0 0 -0.0041,0.004 c -0.754386,0.91531 -1.749136,1.68818 -2.806547,2.39831 l -0.03152,0.002 a 2.0002,2.0002 0 0 0 -0.01137,0 c -2.746479,0.11416 -5.519535,0.3843 -8.273397,0.93173 a 2.0002,2.0002 0 0 0 -0.0021,0 c -1.24794,0.24893 -2.493348,0.55655 -3.726904,0.94309 a 2.0002,2.0002 0 0 0 -0.0015,0 c -0.798671,0.25035 -1.591375,0.53488 -2.375049,0.85783 -0.585431,0.24127 -1.165065,0.50473 -1.736328,0.79272 -0.540451,0.27245 -1.074083,0.56628 -1.595768,0.8847 -0.496673,0.30314 -0.982148,0.62741 -1.455209,0.97462 -0.453732,0.333 -0.894936,0.6865 -1.320333,1.0604 -0.512628,0.45051 -1.001792,0.92895 -1.462959,1.43557 -0.891626,0.97858 -1.669954,2.05145 -2.328024,3.18947 -1.118342,1.93036 -1.868345,4.00702 -2.369364,6.09213 -0.590589,2.45889 -0.852086,4.93576 -0.974618,7.36131 a 2.0002,2.0002 0 0 0 0,0.002 c -0.231409,4.73297 0.04536,9.35948 0.05116,13.87305 a 2,2 0 0 0 2.003495,1.99781 2,2 0 0 0 1.996261,-2.00194 c -0.006,-4.66792 -0.27214,-9.22788 -0.05478,-13.67359 0.115007,-2.27358 0.357249,-4.50257 0.86713,-6.62543 0.429794,-1.7887 1.060627,-3.49788 1.943551,-5.0214 a 2.0002,2.0002 0 0 0 0,-5.2e-4 2.0002,2.0002 0 0 0 0,-5.1e-4 2.0002,2.0002 0 0 0 0,-5.2e-4 2.0002,2.0002 0 0 0 0,-5.2e-4 c 0.518799,-0.89718 1.130093,-1.73854 1.822111,-2.49804 a 2.0002,2.0002 0 0 0 0.0021,0 c 0.359371,-0.39479 0.741668,-0.77086 1.144633,-1.12499 0.334614,-0.29411 0.682908,-0.57407 1.044898,-0.83974 0.377491,-0.27707 0.770215,-0.53847 1.174088,-0.78497 0.424312,-0.25899 0.862904,-0.50221 1.312065,-0.72864 0.474868,-0.2394 0.96165,-0.461 1.459342,-0.66611 0.666419,-0.27463 1.350642,-0.51921 2.048454,-0.73793 1.077932,-0.33778 2.185851,-0.61331 3.312976,-0.8382 2.492093,-0.4954 5.056629,-0.74706 7.650179,-0.85524 l 0.693498,-0.0253 a 2.0002,2.0002 0 0 0 0.299723,-0.093 2.0002,2.0002 0 0 0 -0.02429,0.43408 l 4.863269,33.78915 a 2,2 0 0 0 2.265495,1.69551 2,2 0 0 0 1.693437,-2.2655 l -4.159953,-28.90056 11.077876,8.57054 a 2.0002,2.0002 0 0 0 2.5647,-0.0977 l 5.13044,-4.64261 a 2,2 0 0 0 0.14263,-2.82619 2,2 0 0 0 -2.82619,-0.14107 l -3.88867,3.5196 -13.660149,-10.56835 a 2.0002,2.0002 0 0 0 -0.478523,-0.23668 c 0.742816,-0.61458 1.448704,-1.29472 2.08411,-2.0655 2.11e-4,-2.5e-4 0.0018,2.6e-4 0.0021,0 1.046982,-1.26242 1.837491,-2.68977 2.398303,-4.17804 0.56737,-1.49734 0.873335,-2.9983 1.132748,-4.45968 1.997321,0.39615 4.006101,0.63746 6.007381,0.75809 0.68731,0.0536 1.37813,0.0917 2.07274,0.11008 a 2.0002,2.0002 0 0 0 0.002,0 c 0.76267,0.02 1.52876,0.01 2.29598,-0.0145 0.12731,-0.003 0.25188,-4.4e-4 0.37983,-0.005 a 2.0002,2.0002 0 0 0 0.0119,-0.002 l 0.48214,-0.0196 a 2.0002,2.0002 0 0 0 0.0295,-0.002 l 0.47645,-0.0274 a 2.0002,2.0002 0 0 0 0.0295,-0.002 l 0.47232,-0.0357 a 2.0002,2.0002 0 0 0 0.0295,-0.002 l 0.4687,-0.0413 a 2.0002,2.0002 0 0 0 0.0295,-0.002 l 0.46302,-0.0486 a 2.0002,2.0002 0 0 0 0.031,-0.002 l 0.45888,-0.0548 a 2.0002,2.0002 0 0 0 0.0295,-0.004 l 0.45527,-0.0605 a 2.0002,2.0002 0 0 0 0.031,-0.006 l 0.44907,-0.0667 a 2.0002,2.0002 0 0 0 0.0315,-0.006 l 0.44494,-0.0744 a 2.0002,2.0002 0 0 0 0.0315,-0.004 l 0.44132,-0.0816 a 2.0002,2.0002 0 0 0 0.031,-0.006 l 0.43564,-0.0858 a 2.0002,2.0002 0 0 0 0.031,-0.008 l 0.43202,-0.0915 a 2.0002,2.0002 0 0 0 0.0331,-0.008 l 0.42581,-0.0997 a 2.0002,2.0002 0 0 0 0.0331,-0.008 l 0.42219,-0.10748 a 2.0002,2.0002 0 0 0 0.0331,-0.008 l 0.41806,-0.11163 a 2.0002,2.0002 0 0 0 0.031,-0.01 l 0.41393,-0.11938 a 2.0002,2.0002 0 0 0 0.0331,-0.01 l 0.40825,-0.12506 a 2.0002,2.0002 0 0 0 0.0336,-0.01 l 0.40411,-0.13281 a 2.0002,2.0002 0 0 0 0.0331,-0.0103 l 0.39843,-0.1385 a 2.0002,2.0002 0 0 0 0.0331,-0.0119 l 0.39687,-0.14263 a 2.0002,2.0002 0 0 0 0.0331,-0.0134 l 0.39067,-0.14831 a 2.0002,2.0002 0 0 0 0.031,-0.0139 l 0.38705,-0.15606 a 2.0002,2.0002 0 0 0 0.0331,-0.0139 l 0.38085,-0.16175 a 2.0002,2.0002 0 0 0 0.0331,-0.0139 l 0.37724,-0.16795 a 2.0002,2.0002 0 0 0 0.0331,-0.0155 l 0.3731,-0.17415 a 2.0002,2.0002 0 0 0 0.0331,-0.0155 l 0.36742,-0.18138 a 2.0002,2.0002 0 0 0 0.0331,-0.0155 l 0.36329,-0.18551 a 2.0002,2.0002 0 0 0 0.031,-0.0181 l 0.35966,-0.19327 a 2.0002,2.0002 0 0 0 0.0331,-0.0155 l 0.35346,-0.19896 a 2.0002,2.0002 0 0 0 0.031,-0.0176 l 0.35192,-0.20515 a 2.0002,2.0002 0 0 0 0.031,-0.0176 l 0.34572,-0.21136 a 2.0002,2.0002 0 0 0 0.031,-0.0191 l 0.3421,-0.21497 a 2.0002,2.0002 0 0 0 0.0289,-0.0196 l 0.33796,-0.22273 a 2.0002,2.0002 0 0 0 0.0295,-0.0191 l 0.33228,-0.22892 a 2.0002,2.0002 0 0 0 0.031,-0.0191 l 0.32815,-0.23461 a 2.0002,2.0002 0 0 0 0.0295,-0.0212 l 0.32194,-0.23875 a 2.0002,2.0002 0 0 0 0.0294,-0.0212 l 0.3204,-0.24443 a 2.0002,2.0002 0 0 0 0.0274,-0.0233 l 0.31419,-0.25011 a 2.0002,2.0002 0 0 0 0.0295,-0.0212 l 0.31057,-0.25786 a 2.0002,2.0002 0 0 0 0.0253,-0.0217 l 0.30644,-0.26148 a 2.0002,2.0002 0 0 0 0.0274,-0.0238 l 0.30076,-0.26717 a 2.0002,2.0002 0 0 0 0.0274,-0.0238 l 0.29662,-0.27337 a 2.0002,2.0002 0 0 0 0.0258,-0.0232 l 0.293,-0.27906 a 2.0002,2.0002 0 0 0 0.0253,-0.0238 l 0.2868,-0.28318 a 2.0002,2.0002 0 0 0 0.0253,-0.0253 l 0.28319,-0.28887 a 2.0002,2.0002 0 0 0 0.0258,-0.0253 l 0.27905,-0.29507 a 2.0002,2.0002 0 0 0 0.0233,-0.0233 l 0.27544,-0.30075 a 2.0002,2.0002 0 0 0 0.0217,-0.0258 l 0.2713,-0.30437 a 2.0002,2.0002 0 0 0 0.0217,-0.0253 l 0.26768,-0.31057 a 2.0002,2.0002 0 0 0 0.0212,-0.0253 l 0.262,-0.31678 a 2.0002,2.0002 0 0 0 0.0191,-0.0253 l 0.25786,-0.32246 a 2.0002,2.0002 0 0 0 0.0217,-0.0253 l 0.25166,-0.32608 a 2.0002,2.0002 0 0 0 0.0196,-0.0253 l 0.25011,-0.33383 a 2.0002,2.0002 0 0 0 0.01,-0.0119 c 0.26743,-0.36245 0.52627,-0.72994 0.77567,-1.10329 0.25269,-0.37828 0.4956,-0.76285 0.73018,-1.15083 0.23799,-0.39365 0.46583,-0.79099 0.68575,-1.19321 0.29868,-0.54627 0.58273,-1.10048 0.84956,-1.65985 0.48189,-1.01022 0.91192,-2.03925 1.29863,-3.08043 1.13784,-3.06681 1.89531,-6.23619 2.39262,-9.41183 a 2.0002,2.0002 0 0 0 0,-5.2e-4 2.0002,2.0002 0 0 0 0,-5.1e-4 2.0002,2.0002 0 0 0 0,-5.2e-4 2.0002,2.0002 0 0 0 0,-5.2e-4 c 0.54939,-3.52339 0.78401,-7.07321 0.80305,-10.60142 a 2,2 0 0 0 -1.98851,-2.01021 2,2 0 0 0 -2.01176,1.98851 c -0.0182,3.36498 -0.24242,6.71705 -0.75551,10.00766 -0.46429,2.96415 -1.16373,5.87184 -2.18953,8.63668 -0.34813,0.93729 -0.73331,1.85543 -1.16014,2.75022 -0.23631,0.4954 -0.48425,0.98385 -0.74621,1.46296 -0.19289,0.35278 -0.3943,0.70011 -0.60151,1.04283 -0.20423,0.33779 -0.41463,0.6709 -0.63304,0.99787 -0.21557,0.3227 -0.43811,0.64025 -0.66766,0.95136 l -0.23047,0.30644 -0.23461,0.30076 -0.23617,0.29714 -0.24236,0.29094 -0.24391,0.28525 -0.25011,0.28112 -0.25219,0.27544 -0.25579,0.26975 -0.25942,0.26562 -0.26407,0.25941 -0.26923,0.25425 -0.27182,0.2496 -0.27492,0.24443 -0.27957,0.23822 -0.28318,0.23462 -0.28732,0.2284 -0.29094,0.22273 -0.29456,0.21652 -0.2992,0.21291 -0.30283,0.20722 -0.30644,0.20309 -0.31058,0.19534 -0.31419,0.1912 -0.32039,0.18759 -0.32453,0.17983 -0.32608,0.1757 -0.33176,0.17002 -0.3359,0.16381 -0.3421,0.1602 -0.34364,0.15451 -0.34985,0.14831 -0.35347,0.14263 -0.35708,0.13642 -0.36329,0.13281 -0.36742,0.12506 -0.37104,0.12144 -0.37517,0.11524 -0.17931,0.0512 a 2,2 0 0 0 -0.0878,0.002 c -0.79137,0.22468 -1.5974,0.41052 -2.41174,0.55862 -1.38318,0.25185 -2.79636,0.38597 -4.22145,0.43718 -0.84037,0.0241 -1.69772,0.0158 -2.57607,-0.01 h -0.004 c -0.45719,-0.0143 -0.91171,-0.0438 -1.36685,-0.0698 -2.14516,-0.14919 -4.298472,-0.45566 -6.453346,-0.86041 -0.122288,-0.0274 -0.247131,-0.0467 -0.36897,-0.0754 -0.895146,-0.212 -1.776362,-0.46255 -2.637049,-0.75603 -0.477663,-0.16287 -0.949923,-0.33905 -1.413867,-0.52916 -0.342656,-0.14041 -0.681404,-0.28755 -1.015442,-0.44339 -0.32569,-0.15195 -0.646673,-0.31155 -0.963248,-0.47852 l -0.01344,-0.008 -0.318327,-0.17001 -0.312642,-0.1757 -0.310576,-0.18139 -0.304374,-0.18552 -0.300757,-0.18965 -0.297139,-0.19533 -0.293006,-0.20103 -0.288871,-0.20515 -0.285254,-0.20877 -0.28112,-0.21498 -0.277502,-0.22066 -0.273368,-0.22479 -0.269751,-0.23048 -0.265617,-0.23616 -0.261483,-0.24236 -0.257865,-0.24598 -0.253732,-0.25218 -0.252181,-0.25787 -0.245979,-0.26148 -0.242363,-0.26975 -0.238228,-0.27544 -0.236162,-0.27905 -0.230476,-0.28732 -0.22841,-0.29094 -0.224793,-0.29869 -0.218591,-0.30489 -0.217041,-0.31057 -0.212907,-0.31626 -0.208773,-0.32195 -0.205155,-0.33021 -0.201022,-0.3359 -0.197403,-0.34209 -0.19327,-0.34934 -0.189653,-0.35553 -0.187585,-0.36122 -0.181385,-0.36949 -0.177767,-0.37672 -0.174149,-0.38292 -0.169499,-0.38861 -0.166398,-0.39842 -0.161747,-0.40256 -0.158647,-0.41186 -0.153996,-0.41806 -0.148311,-0.42582 -0.146761,-0.4315 -0.14056,-0.43976 -0.0036,-0.0134 c -0.139923,-0.44651 -0.271705,-0.89759 -0.394808,-1.35134 -0.128546,-0.47383 -0.247733,-0.95152 -0.359151,-1.43195 -0.115271,-0.49707 -0.222152,-0.99726 -0.320394,-1.50017 -0.136398,-0.69828 -0.256833,-1.4002 -0.363286,-2.10736 -0.38223,-2.54357 -0.584806,-5.12906 -0.664042,-7.73235 v -0.002 c -0.120677,-4.06064 0.05338,-8.14705 0.398426,-12.2344 a 2,2 0 0 0 -1.824178,-2.16214 z m 40.020297,51.68263 a 2,2 0 0 0 -0.94775,0.41548 v 5.2e-4 a 2,2 0 0 0 -0.31057,2.81223 c 1.01356,1.26399 2.14243,2.35654 3.26388,3.36517 a 2.0002,2.0002 0 0 0 0.002,0.002 c 0.14551,0.13055 0.29307,0.25118 0.43925,0.37931 a 2,2 0 0 0 -0.0155,0.0424 l -5.59759,35.91616 a 2,2 0 0 0 1.6676,2.28513 2,2 0 0 0 2.28358,-1.6676 l 5.4498,-34.97047 c 2.44791,0.15998 4.86915,0.44247 7.22798,0.93534 1.16874,0.24518 2.31814,0.54163 3.43752,0.9002 0.72535,0.23243 1.4366,0.4906 2.13062,0.77928 0.51867,0.21575 1.02753,0.44883 1.52342,0.69919 0.46915,0.23685 0.92669,0.48776 1.37098,0.75757 0.42277,0.25673 0.83411,0.53079 1.23041,0.81856 0.37972,0.27571 0.74755,0.56456 1.09968,0.86919 0.34003,0.29415 0.66694,0.60306 0.97875,0.92398 0.45294,0.46605 0.87447,0.9619 1.26349,1.48208 a 2.0002,2.0002 0 0 0 0.002,0 c 0.88433,1.18039 1.60053,2.50975 2.15026,3.91811 a 2.0002,2.0002 0 0 0 0,0.002 c 0.7722,1.97517 1.23509,4.11582 1.50998,6.31848 0.35329,2.85301 0.40314,5.78891 0.38293,8.77311 -0.02,2.6657 -0.10395,5.36416 -0.10956,8.09976 a 2,2 0 0 0 1.99626,2.00401 2,2 0 0 0 2.00402,-1.99626 c 0.005,-2.65856 0.0886,-5.34988 0.10903,-8.07806 a 2.0002,2.0002 0 0 0 0,-5.1e-4 2.0002,2.0002 0 0 0 0,-5.2e-4 2.0002,2.0002 0 0 0 0,-5.2e-4 2.0002,2.0002 0 0 0 0,-5.1e-4 c 0.0206,-3.04531 -0.0252,-6.1571 -0.41393,-9.29504 a 2.0002,2.0002 0 0 0 0,-5.2e-4 2.0002,2.0002 0 0 0 0,-5.2e-4 2.0002,2.0002 0 0 0 0,-5.1e-4 c -0.30316,-2.42921 -0.82105,-4.89625 -1.75183,-7.27759 v -0.002 c -0.66778,-1.71043 -1.55104,-3.35782 -2.6758,-4.85914 -0.49237,-0.65837 -1.02716,-1.28394 -1.5999,-1.87327 -0.39385,-0.40535 -0.80463,-0.79179 -1.23042,-1.16013 -0.44086,-0.38141 -0.89655,-0.74383 -1.36529,-1.08417 -0.48911,-0.35516 -0.99133,-0.68669 -1.50379,-0.99788 -0.53841,-0.32698 -1.08718,-0.6308 -1.64434,-0.91209 -0.58882,-0.29727 -1.18585,-0.56919 -1.78904,-0.8201 -0.80691,-0.33563 -1.6248,-0.63301 -2.44739,-0.89659 -1.26863,-0.40638 -2.55097,-0.73451 -3.83595,-1.00407 a 2.0002,2.0002 0 0 0 -0.002,0 c -2.81813,-0.58898 -5.65773,-0.85396 -8.47855,-1.01182 -0.37884,-0.32236 -0.76037,-0.64339 -1.125,-0.97049 l -0.002,-0.002 c -1.04098,-0.93636 -2.00572,-1.88242 -2.8143,-2.89078 a 2,2 0 0 0 -1.86293,-0.72606 z"
       inkscape:label="Line" /><path
       style="display:inline;fill:none;stroke:#000000;stroke-width:4;stroke-linecap:round;stroke-linejoin:round;stroke-miterlimit:10;stroke-dasharray:87.9999, 7.99999;stroke-dashoffset:0;paint-order:markers fill stroke"
       d="m 75.557361,121.79588 34.355999,3.3581 4.00389,-9.29936 3.87474,8.2661 15.75726,-2.71231"
       id="path4"
       inkscape:label="Franja" /></g></svg>
